<svg id="SvgjsSvg1001" width="288" height="288" xmlns="http://www.w3.org/2000/svg" version="1.1" xmlns:xlink="http://www.w3.org/1999/xlink" xmlns:svgjs="http://svgjs.com/svgjs"><defs id="SvgjsDefs1002"></defs><g id="SvgjsG1008"><svg xmlns="http://www.w3.org/2000/svg" fill-rule="evenodd" clip-rule="evenodd" image-rendering="optimizeQuality" shape-rendering="geometricPrecision" text-rendering="geometricPrecision" viewBox="0 0 1781 1889" width="288" height="288"><path fill="#4caf50" d="M 1088.5,-0.5 C 1098.17,-0.5 1107.83,-0.5 1117.5,-0.5C 1218,14.5175 1293.83,65.8509 1345,153.5C 1352.15,166.807 1358.49,180.473 1364,194.5C 1421.02,219.191 1466.02,257.858 1499,310.5C 1530.45,366.017 1536.79,424.351 1518,485.5C 1508.58,515.434 1496.25,544.101 1481,571.5C 1455.48,614.571 1428.98,656.904 1401.5,698.5C 1400.83,698.5 1400.5,698.833 1400.5,699.5C 1399.83,699.5 1399.17,699.5 1398.5,699.5C 1399.17,698.167 1399.83,696.833 1400.5,695.5C 1423.31,659.223 1446.15,622.89 1469,586.5C 1487.27,555.374 1502.27,522.707 1514,488.5C 1537.29,414.912 1525.63,347.578 1479,286.5C 1449.11,247.812 1411.61,219.145 1366.5,200.5C 1399.44,314.317 1376.94,415.651 1299,504.5C 1279.68,524.041 1258.52,541.041 1235.5,555.5C 1158.58,535.327 1082.91,539.494 1008.5,568C 968.609,583.438 931.609,603.771 897.5,629C 880.288,643.954 865.788,661.121 854,680.5C 846.264,693.915 838.931,707.582 832,721.5C 808.417,760.11 779.917,794.943 746.5,826C 709.217,858.626 670.217,888.959 629.5,917C 587.009,944.496 545.342,973.162 504.5,1003C 428.878,1066.22 367.378,1140.72 320,1226.5C 306.973,1251.25 297.306,1277.25 291,1304.5C 285.235,1340.42 287.902,1375.76 299,1410.5C 308.065,1438.29 320.565,1464.29 336.5,1488.5C 294.094,1492.55 252.761,1487.71 212.5,1474C 134.452,1442.1 93.785,1383.93 90.5,1299.5C 91.8106,1261.26 99.3106,1224.26 113,1188.5C 117.804,1175.75 122.804,1163.09 128,1150.5C 146.077,1112.01 164.41,1073.68 183,1035.5C 193.478,1012.09 199.311,987.59 200.5,962C 200.953,938.848 193.62,918.681 178.5,901.5C 129.166,975.817 87.3326,1054.48 53,1137.5C 20.7892,1217.39 3.62257,1300.39 1.5,1386.5C 1.1675,1469.83 20.0008,1548.5 58,1622.5C 101.204,1699.7 163.038,1756.87 243.5,1794C 317.99,1826.79 395.99,1844.12 477.5,1846C 554.766,1847.77 631.099,1840.11 706.5,1823C 781.384,1805.86 855.718,1786.7 929.5,1765.5C 929.833,1765.5 930.167,1765.5 930.5,1765.5C 931.791,1765.26 932.791,1765.6 933.5,1766.5C 932.833,1766.5 932.5,1766.83 932.5,1767.5C 862.354,1787.87 791.688,1806.37 720.5,1823C 649.275,1839.59 577.109,1848.42 504,1849.5C 427.738,1849.89 353.572,1837.73 281.5,1813C 131.716,1756.53 40.8824,1649.7 9,1492.5C 4.50289,1467.85 1.33622,1443.19 -0.5,1418.5C -0.5,1397.5 -0.5,1376.5 -0.5,1355.5C 7.00268,1263.5 30.1693,1175.5 69,1091.5C 100.292,1024.73 135.792,960.559 175.5,899C 173.848,896.677 172.181,894.344 170.5,892C 155.167,879.333 139.833,866.667 124.5,854C 54.1425,787.779 14.3092,706.279 5,609.5C -3.44955,473.922 46.7171,366.089 155.5,286C 233.191,230.993 319.524,208.659 414.5,219C 433.663,220.857 452.663,223.69 471.5,227.5C 558.574,147.679 661.574,108.346 780.5,109.5C 832.347,110.346 884.014,113.512 935.5,119C 948.563,99.9348 962.397,81.4348 977,63.5C 996.543,39.6135 1020.38,21.4468 1048.5,9C 1061.6,4.2244 1074.93,1.05773 1088.5,-0.5 Z M 750.5,112.5 C 811.812,111.45 872.812,114.95 933.5,123C 913.622,154.041 890.622,182.708 864.5,209C 824.609,243.923 777.942,262.256 724.5,264C 685.148,264.938 646.148,261.604 607.5,254C 563.86,245.205 520.194,236.539 476.5,228C 553.81,156.862 645.143,118.362 750.5,112.5 Z M 1366.5,200.5 C 1411.61,219.145 1449.11,247.812 1479,286.5C 1525.63,347.578 1537.29,414.912 1514,488.5C 1502.27,522.707 1487.27,555.374 1469,586.5C 1446.15,622.89 1423.31,659.223 1400.5,695.5C 1368.87,634.714 1321.54,590.547 1258.5,563C 1250.98,559.994 1243.31,557.494 1235.5,555.5C 1258.52,541.041 1279.68,524.041 1299,504.5C 1376.94,415.651 1399.44,314.317 1366.5,200.5 Z" opacity=".995" class="colorc47a5e svgShape"></path><path fill="#edf7ee" d="M 1235.5,555.5 C 1243.31,557.494 1250.98,559.994 1258.5,563C 1321.54,590.547 1368.87,634.714 1400.5,695.5C 1399.83,696.833 1399.17,698.167 1398.5,699.5C 1373.92,739.05 1355.42,781.383 1343,826.5C 1333.09,863.841 1333.09,901.174 1343,938.5C 1349.73,960.642 1360.56,980.309 1375.5,997.5C 1376.53,999.517 1377.53,1001.52 1378.5,1003.5C 1381.6,1043.4 1399.6,1074.57 1432.5,1097C 1448.55,1107.19 1465.55,1115.52 1483.5,1122C 1526.03,1135.35 1568.7,1148.18 1611.5,1160.5C 1611.83,1160.5 1612.17,1160.5 1612.5,1160.5C 1612.5,1161.17 1612.83,1161.5 1613.5,1161.5C 1616.45,1163.12 1619.12,1165.12 1621.5,1167.5C 1663.47,1204.33 1693.3,1249.33 1711,1302.5C 1724.85,1354.45 1721.19,1405.11 1700,1454.5C 1673.7,1509.91 1635.54,1555.41 1585.5,1591C 1540.54,1621.97 1491.54,1644.64 1438.5,1659C 1405.52,1668.06 1372.19,1675.73 1338.5,1682C 1280.51,1691.09 1222.51,1700.09 1164.5,1709C 1085.33,1723.46 1007.33,1742.29 930.5,1765.5C 930.167,1765.5 929.833,1765.5 929.5,1765.5C 904.062,1741.23 878.729,1716.73 853.5,1692C 826.972,1667.09 798.972,1644.09 769.5,1623C 732.114,1597.32 690.781,1582.32 645.5,1578C 634.167,1577.33 622.833,1577.33 611.5,1578C 586.827,1580.26 562.16,1582.59 537.5,1585C 484.081,1590.3 435.748,1577.3 392.5,1546C 370.559,1529.89 351.893,1510.72 336.5,1488.5C 320.565,1464.29 308.065,1438.29 299,1410.5C 287.902,1375.76 285.235,1340.42 291,1304.5C 297.306,1277.25 306.973,1251.25 320,1226.5C 367.378,1140.72 428.878,1066.22 504.5,1003C 545.342,973.162 587.009,944.496 629.5,917C 670.217,888.959 709.217,858.626 746.5,826C 779.917,794.943 808.417,760.11 832,721.5C 838.931,707.582 846.264,693.915 854,680.5C 865.788,661.121 880.288,643.954 897.5,629C 931.609,603.771 968.609,583.438 1008.5,568C 1082.91,539.494 1158.58,535.327 1235.5,555.5 Z" opacity=".999" class="colore7dfd7 svgShape"></path><path fill="#edf7ee" d="M 1401.5,698.5 C 1424.49,747.491 1428.99,798.157 1415,850.5C 1404.8,882.773 1394.8,915.106 1385,947.5C 1380.55,963.876 1378.38,980.543 1378.5,997.5C 1377.83,997.167 1377.17,996.833 1376.5,996.5C 1348.12,960.19 1335.29,918.857 1338,872.5C 1341.89,829.598 1353.56,788.932 1373,750.5C 1381.67,733.154 1390.84,716.154 1400.5,699.5C 1400.5,698.833 1400.83,698.5 1401.5,698.5 Z" opacity=".991" class="colore7dfd7 svgShape"></path><path fill="#449e48" d="M 1398.5,699.5 C 1399.17,699.5 1399.83,699.5 1400.5,699.5C 1390.84,716.154 1381.67,733.154 1373,750.5C 1353.56,788.932 1341.89,829.598 1338,872.5C 1335.29,918.857 1348.12,960.19 1376.5,996.5C 1375.83,996.5 1375.5,996.833 1375.5,997.5C 1360.56,980.309 1349.73,960.642 1343,938.5C 1333.09,901.174 1333.09,863.841 1343,826.5C 1355.42,781.383 1373.92,739.05 1398.5,699.5 Z" class="colorc8856b svgShape"></path><path fill="#4caf50" d="M 1376.5,996.5 C 1377.17,996.833 1377.83,997.167 1378.5,997.5C 1391.72,1012.55 1406.38,1026.05 1422.5,1038C 1435.9,1047.06 1449.57,1055.73 1463.5,1064C 1495.16,1080.83 1526.49,1098.16 1557.5,1116C 1580.16,1130.49 1601.49,1146.65 1621.5,1164.5C 1621.83,1165.17 1622.17,1165.83 1622.5,1166.5C 1621.83,1166.5 1621.5,1166.83 1621.5,1167.5C 1619.12,1165.12 1616.45,1163.12 1613.5,1161.5C 1612.83,1161.5 1612.5,1161.17 1612.5,1160.5C 1612.17,1160.5 1611.83,1160.5 1611.5,1160.5C 1594.48,1144.99 1576.15,1131.16 1556.5,1119C 1522.99,1100.08 1489.33,1081.41 1455.5,1063C 1426.91,1047.03 1401.25,1027.2 1378.5,1003.5C 1377.53,1001.52 1376.53,999.517 1375.5,997.5C 1375.5,996.833 1375.83,996.5 1376.5,996.5 Z" opacity=".672" class="colorc47a5e svgShape"></path><path fill="#edf7ee" d="M 1621.5,1164.5 C 1689.76,1189.59 1736.59,1236.26 1762,1304.5C 1771.68,1331.19 1777.84,1358.52 1780.5,1386.5C 1780.5,1403.5 1780.5,1420.5 1780.5,1437.5C 1774.28,1491.99 1756.78,1542.65 1728,1589.5C 1694.37,1641.81 1653.54,1687.98 1605.5,1728C 1536.72,1785.58 1459.72,1829.58 1374.5,1860C 1329.2,1875.23 1282.86,1884.73 1235.5,1888.5C 1218.5,1888.5 1201.5,1888.5 1184.5,1888.5C 1114.5,1884 1051.16,1861.17 994.5,1820C 972.834,1803.67 952.168,1786.17 932.5,1767.5C 932.5,1766.83 932.833,1766.5 933.5,1766.5C 1015.57,1741.98 1098.91,1722.48 1183.5,1708C 1235.21,1700.24 1286.87,1692.24 1338.5,1684C 1399.89,1673.82 1459.22,1656.82 1516.5,1633C 1578.39,1604.77 1629.89,1563.6 1671,1509.5C 1740.52,1407.69 1738.19,1307.69 1664,1209.5C 1651.7,1193.7 1637.87,1179.37 1622.5,1166.5C 1622.17,1165.83 1621.83,1165.17 1621.5,1164.5 Z" opacity=".995" class="colore7dfd7 svgShape"></path><path fill="#449e48" d="M 1622.5,1166.5 C 1637.87,1179.37 1651.7,1193.7 1664,1209.5C 1738.19,1307.69 1740.52,1407.69 1671,1509.5C 1629.89,1563.6 1578.39,1604.77 1516.5,1633C 1459.22,1656.82 1399.89,1673.82 1338.5,1684C 1286.87,1692.24 1235.21,1700.24 1183.5,1708C 1098.91,1722.48 1015.57,1741.98 933.5,1766.5C 932.791,1765.6 931.791,1765.26 930.5,1765.5C 1007.33,1742.29 1085.33,1723.46 1164.5,1709C 1222.51,1700.09 1280.51,1691.09 1338.5,1682C 1372.19,1675.73 1405.52,1668.06 1438.5,1659C 1491.54,1644.64 1540.54,1621.97 1585.5,1591C 1635.54,1555.41 1673.7,1509.91 1700,1454.5C 1721.19,1405.11 1724.85,1354.45 1711,1302.5C 1693.3,1249.33 1663.47,1204.33 1621.5,1167.5C 1621.5,1166.83 1621.83,1166.5 1622.5,1166.5 Z" class="colorc8846a svgShape"></path></svg></g></svg>